<?xml version="1.0" encoding="iso-8859-1"?>
<!-- Generator: Adobe Illustrator 19.0.0, SVG Export Plug-In . SVG Version: 6.00 Build 0)  -->
<svg version="1.1" id="Layer_1" xmlns="http://www.w3.org/2000/svg" xmlns:xlink="http://www.w3.org/1999/xlink" x="0px" y="0px"
	 viewBox="0 0 512 512" style="enable-background:new 0 0 512 512;" xml:space="preserve">
<polygon style="fill:#EFF4F7;" points="376,64 136,64 136,160 232,256 136,352 136,448 376,448 376,352 280,256 376,160 "/>
<polygon style="fill:#FFCB59;" points="152,152 152,120 360,120 360,152 256,256 "/>
<polygon style="fill:#FFDC73;" points="152,152 152,120 208,120 208,152 256,256 "/>
<polygon style="fill:#FFCB59;" points="336,448 256,368 176,448 "/>
<polygon style="fill:#FFDC73;" points="224,448 256,368 176,448 "/>
<g>
	<rect x="248" y="272" style="fill:#474545;" width="16" height="16"/>
	<rect x="248" y="304" style="fill:#474545;" width="16" height="16"/>
	<rect x="248" y="336" style="fill:#474545;" width="16" height="16"/>
	<rect x="96" y="48" style="fill:#474545;" width="16" height="416"/>
</g>
<circle style="fill:#2D2829;" cx="104" cy="256" r="24"/>
<rect x="400" y="48" style="fill:#474545;" width="16" height="416"/>
<circle style="fill:#2D2829;" cx="408" cy="256" r="24"/>
<path style="fill:#474545;" d="M432.968,7.032C428.28,2.344,422.144,0,416,0H96c-6.144,0-12.28,2.344-16.968,7.032S72,17.856,72,24
	s2.344,12.28,7.032,16.968S89.856,48,96,48h320c6.144,0,12.28-2.344,16.968-7.032S440,30.144,440,24S437.656,11.72,432.968,7.032z"
	/>
<rect x="112" y="48" style="fill:#2D2829;" width="288" height="16"/>
<rect x="112" style="fill:#5E5C5C;" width="96" height="48"/>
<g>
	<rect x="136" y="48" style="fill:#474545;" width="64" height="16"/>
	<path style="fill:#474545;" d="M432.968,471.032C428.28,466.344,422.144,464,416,464H96c-6.144,0-12.28,2.344-16.968,7.032
		S72,481.856,72,488s2.344,12.28,7.032,16.968S89.856,512,96,512h320c6.144,0,12.28-2.344,16.968-7.032S440,494.144,440,488
		S437.656,475.72,432.968,471.032z"/>
</g>
<rect x="112" y="448" style="fill:#2D2829;" width="288" height="16"/>
<rect x="112" y="464" style="fill:#5E5C5C;" width="96" height="48"/>
<rect x="136" y="448" style="fill:#474545;" width="64" height="16"/>
<g>
</g>
<g>
</g>
<g>
</g>
<g>
</g>
<g>
</g>
<g>
</g>
<g>
</g>
<g>
</g>
<g>
</g>
<g>
</g>
<g>
</g>
<g>
</g>
<g>
</g>
<g>
</g>
<g>
</g>
</svg>
